<?xml version="1.0" standalone="no"?>
<!DOCTYPE svg PUBLIC "-//W3C//DTD SVG 20010904//EN"
 "http://www.w3.org/TR/2001/REC-SVG-20010904/DTD/svg10.dtd">
<svg version="1.0" xmlns="http://www.w3.org/2000/svg"
 width="1280.000000pt" height="1280.000000pt" viewBox="0 0 1280.000000 1280.000000"
 preserveAspectRatio="xMidYMid meet">
<metadata>
Created by potrace 1.15, written by Peter Selinger 2001-2017
</metadata>
<g transform="translate(0.000000,1280.000000) scale(0.100000,-0.100000)"
fill="#000000" stroke="none">
<path d="M2860 9677 l0 -173 33 -31 32 -31 215 -5 c364 -9 584 -64 715 -179
76 -67 145 -232 179 -428 34 -197 37 -406 34 -2750 l-4 -2315 -21 -125 c-43
-246 -103 -386 -196 -458 -148 -115 -330 -155 -747 -168 l-236 -7 -37 -32 -37
-33 2 -173 3 -174 3285 0 3285 0 327 975 c180 536 327 978 327 982 1 4 -17 17
-39 28 -35 18 -58 20 -208 20 l-169 0 -83 -147 c-298 -527 -568 -835 -881
-1002 -328 -175 -637 -211 -1789 -211 -795 1 -988 13 -1100 70 -57 29 -107 85
-129 145 -47 124 -46 83 -46 2695 0 2281 1 2473 17 2575 53 339 151 507 353
608 137 68 304 95 638 104 l247 6 0 204 0 203 -1985 0 -1985 0 0 -173z"/>
</g>
</svg>
