<?xml version="1.0" standalone="no"?>
<!DOCTYPE svg PUBLIC "-//W3C//DTD SVG 20010904//EN"
 "http://www.w3.org/TR/2001/REC-SVG-20010904/DTD/svg10.dtd">
<svg version="1.0" xmlns="http://www.w3.org/2000/svg"
 width="1280.000000pt" height="1280.000000pt" viewBox="0 0 1280.000000 1280.000000"
 preserveAspectRatio="xMidYMid meet">
<metadata>
Created by potrace 1.15, written by Peter Selinger 2001-2017
</metadata>
<g transform="translate(0.000000,1280.000000) scale(0.100000,-0.100000)"
fill="#000000" stroke="none">
<path d="M5940 11011 c-628 -71 -1205 -261 -1722 -568 -982 -582 -1667 -1589
-1817 -2675 -131 -941 85 -1839 631 -2625 155 -222 260 -346 464 -549 422
-419 889 -709 1465 -910 l165 -57 59 -111 c190 -359 460 -730 733 -1010 211
-215 517 -455 785 -615 520 -311 1210 -529 1932 -610 234 -27 785 -51 1154
-51 l291 0 0 176 0 176 -35 48 -35 48 -108 6 c-1028 59 -1759 478 -2185 1251
-88 161 -150 300 -213 478 -34 97 -48 150 -40 153 6 2 76 24 156 48 1531 461
2593 1660 2802 3161 19 138 22 203 21 475 0 290 -2 330 -27 500 -112 757 -440
1439 -960 1994 -328 350 -712 634 -1152 854 -400 200 -820 327 -1293 393 -197
27 -246 30 -561 34 -289 3 -372 1 -510 -14z m776 -601 c336 -45 609 -146 879
-323 484 -319 825 -875 995 -1622 93 -409 140 -999 119 -1505 -21 -537 -107
-1040 -242 -1416 -161 -446 -401 -817 -688 -1059 -294 -250 -616 -392 -1025
-451 -171 -25 -547 -25 -704 0 -238 37 -409 88 -596 176 -717 339 -1185 1139
-1318 2255 -15 126 -30 329 -37 505 -17 424 -3 720 51 1113 134 959 499 1639
1087 2025 270 177 607 286 968 312 132 10 401 4 511 -10z"/>
</g>
</svg>
