<?xml version="1.0" standalone="no"?>
<!DOCTYPE svg PUBLIC "-//W3C//DTD SVG 20010904//EN"
 "http://www.w3.org/TR/2001/REC-SVG-20010904/DTD/svg10.dtd">
<svg version="1.0" xmlns="http://www.w3.org/2000/svg"
 width="1280.000000pt" height="1280.000000pt" viewBox="0 0 1280.000000 1280.000000"
 preserveAspectRatio="xMidYMid meet">
<metadata>
Created by potrace 1.15, written by Peter Selinger 2001-2017
</metadata>
<g transform="translate(0.000000,1280.000000) scale(0.100000,-0.100000)"
fill="#000000" stroke="none">
<path d="M5855 10784 c-146 -8 -311 -28 -453 -55 -1033 -195 -1763 -859 -1924
-1749 -29 -160 -31 -477 -4 -635 75 -448 265 -813 599 -1149 324 -326 611
-507 2402 -1516 762 -429 881 -507 1093 -714 258 -251 390 -518 424 -854 33
-331 -67 -635 -292 -884 -117 -131 -346 -273 -540 -336 -210 -69 -352 -87
-613 -79 -364 10 -645 81 -982 247 -247 121 -428 244 -655 446 -386 343 -695
772 -936 1299 l-91 200 -197 3 c-161 2 -201 0 -226 -13 l-30 -16 0 -1449 0
-1449 192 2 193 2 32 50 c18 27 40 74 49 105 25 84 50 126 116 191 168 166
395 225 644 171 50 -12 397 -113 770 -225 374 -113 733 -217 799 -230 257 -54
640 -81 930 -67 1144 57 2070 691 2396 1640 131 381 148 886 44 1320 -108 448
-311 794 -685 1171 -305 307 -562 485 -1282 890 -266 150 -739 408 -1053 574
-653 347 -901 487 -1078 609 -154 106 -189 135 -261 216 -163 182 -246 391
-246 620 0 497 332 857 885 956 139 26 498 26 635 1 534 -98 1007 -371 1434
-826 280 -298 506 -638 681 -1026 43 -93 82 -176 87 -182 8 -10 59 -13 193
-13 173 0 184 1 216 23 l34 23 3 1357 2 1357 -208 0 -207 0 -31 -62 c-18 -35
-40 -88 -50 -117 -26 -76 -106 -161 -192 -203 -60 -30 -77 -33 -172 -36 -113
-4 -277 22 -453 73 -331 96 -827 228 -952 255 -235 49 -497 78 -755 83 -124 2
-252 3 -285 1z"/>
</g>
</svg>
