<?xml version="1.0" standalone="no"?>
<!DOCTYPE svg PUBLIC "-//W3C//DTD SVG 20010904//EN"
 "http://www.w3.org/TR/2001/REC-SVG-20010904/DTD/svg10.dtd">
<svg version="1.0" xmlns="http://www.w3.org/2000/svg"
 width="1280.000000pt" height="1280.000000pt" viewBox="0 0 1280.000000 1280.000000"
 preserveAspectRatio="xMidYMid meet">
<metadata>
Created by potrace 1.15, written by Peter Selinger 2001-2017
</metadata>
<g transform="translate(0.000000,1280.000000) scale(0.100000,-0.100000)"
fill="#000000" stroke="none">
<path d="M2946 9708 c-3 -79 -13 -399 -21 -713 -8 -313 -17 -638 -21 -720 l-6
-150 36 -18 c30 -14 66 -17 210 -17 l174 0 7 53 c10 74 61 269 92 352 165 440
421 622 998 707 124 18 205 21 698 25 l558 6 -4 -2699 c-3 -2502 -4 -2707 -20
-2814 -24 -158 -42 -221 -88 -317 -99 -207 -300 -331 -602 -372 -42 -6 -174
-14 -293 -18 l-216 -6 -19 -31 c-17 -27 -19 -52 -19 -209 l0 -177 1993 2 1992
3 3 173 c2 160 1 177 -18 207 l-20 32 -217 7 c-434 14 -631 62 -767 187 -110
100 -169 228 -202 434 -17 103 -18 291 -21 2853 l-4 2742 553 0 c304 0 603 -5
663 -10 263 -25 490 -85 640 -171 251 -143 409 -413 470 -804 8 -55 18 -112
21 -127 l6 -28 168 0 c140 0 176 3 206 17 l36 18 -7 270 c-4 148 -15 536 -24
860 l-16 590 -3456 3 -3457 2 -6 -142z"/>
</g>
</svg>
